<svg width="39" height="50" viewBox="0 0 39 50" fill="none" xmlns="http://www.w3.org/2000/svg">
<path d="M36.5728 11.306C38.8779 12.5707 38.6777 15.9457 36.2393 16.9296L26.8317 20.7262C24.1335 21.815 23.8623 25.5285 26.3738 26.9977C27.8307 27.8503 28.0432 29.8717 26.795 31.0083L7.48623 48.5891C5.13595 50.7292 1.46627 48.3917 2.41209 45.3572L7.39256 29.3821C7.96305 27.5523 7.19524 25.5705 5.54082 24.6026L3.01205 23.1233C1.38859 22.1736 0.969317 20.0128 2.12003 18.5251L14.6755 2.29412C15.6141 1.08104 17.2962 0.730903 18.6409 1.46859L36.5728 11.306Z" fill="url(#paint0_linear_202_42)"/>
<path d="M36.5728 11.306C38.8779 12.5707 38.6777 15.9457 36.2393 16.9296L26.8317 20.7262C24.1335 21.815 23.8623 25.5285 26.3738 26.9977C27.8307 27.8503 28.0432 29.8717 26.795 31.0083L7.48623 48.5891C5.13595 50.7292 1.46627 48.3917 2.41209 45.3572L7.39256 29.3821C7.96305 27.5523 7.19524 25.5705 5.54082 24.6026L3.01205 23.1233C1.38859 22.1736 0.969317 20.0128 2.12003 18.5251L14.6755 2.29412C15.6141 1.08104 17.2962 0.730903 18.6409 1.46859L36.5728 11.306Z" stroke="black"/>
<path d="M36.5728 11.306C38.8779 12.5707 38.6777 15.9457 36.2393 16.9296L26.8317 20.7262C24.1335 21.815 23.8623 25.5285 26.3738 26.9977C27.8307 27.8503 28.0432 29.8717 26.795 31.0083L7.48623 48.5891C5.13595 50.7292 1.46627 48.3917 2.41209 45.3572L7.39256 29.3821C7.96305 27.5523 7.19524 25.5705 5.54082 24.6026L3.01205 23.1233C1.38859 22.1736 0.969317 20.0128 2.12003 18.5251L14.6755 2.29412C15.6141 1.08104 17.2962 0.730903 18.6409 1.46859L36.5728 11.306Z" stroke="black" stroke-opacity="0.2"/>
<defs>
<linearGradient id="paint0_linear_202_42" x1="39.3404" y1="12.1025" x2="12.6368" y2="-0.651114" gradientUnits="userSpaceOnUse">
<stop stop-color="#FF6432"/>
<stop offset="1" stop-color="#FFA228"/>
</linearGradient>
</defs>
</svg>
